<svg id="visual" viewBox="0 0 900 600" width="900" height="600" xmlns="http://www.w3.org/2000/svg" xmlns:xlink="http://www.w3.org/1999/xlink" version="1.1"><rect x="0" y="0" width="900" height="600" fill="#000"></rect><path d="M0 419L30 423.5C60 428 120 437 180 434.5C240 432 300 418 360 423.7C420 429.3 480 454.7 540 459.2C600 463.7 660 447.3 720 442.5C780 437.7 840 444.3 870 447.7L900 451L900 601L870 601C840 601 780 601 720 601C660 601 600 601 540 601C480 601 420 601 360 601C300 601 240 601 180 601C120 601 60 601 30 601L0 601Z" fill="#00a85f"></path><path d="M0 463L30 465C60 467 120 471 180 480.5C240 490 300 505 360 506.2C420 507.3 480 494.7 540 489.2C600 483.7 660 485.3 720 479C780 472.7 840 458.3 870 451.2L900 444L900 601L870 601C840 601 780 601 720 601C660 601 600 601 540 601C480 601 420 601 360 601C300 601 240 601 180 601C120 601 60 601 30 601L0 601Z" fill="#00a96b"></path><path d="M0 495L30 493.8C60 492.7 120 490.3 180 488.7C240 487 300 486 360 485C420 484 480 483 540 485.2C600 487.3 660 492.7 720 503.5C780 514.3 840 530.7 870 538.8L900 547L900 601L870 601C840 601 780 601 720 601C660 601 600 601 540 601C480 601 420 601 360 601C300 601 240 601 180 601C120 601 60 601 30 601L0 601Z" fill="#00a975"></path><path d="M0 579L30 578.2C60 577.3 120 575.7 180 568.8C240 562 300 550 360 549.2C420 548.3 480 558.7 540 556.5C600 554.3 660 539.7 720 538.8C780 538 840 551 870 557.5L900 564L900 601L870 601C840 601 780 601 720 601C660 601 600 601 540 601C480 601 420 601 360 601C300 601 240 601 180 601C120 601 60 601 30 601L0 601Z" fill="#00a97f"></path></svg>